<?xml version="1.0" standalone="no"?>
<!DOCTYPE svg PUBLIC "-//W3C//DTD SVG 20010904//EN"
 "http://www.w3.org/TR/2001/REC-SVG-20010904/DTD/svg10.dtd">
<svg version="1.0" xmlns="http://www.w3.org/2000/svg"
 width="512.000000pt" height="512.000000pt" viewBox="0 0 512.000000 512.000000"
 preserveAspectRatio="xMidYMid meet">

<g transform="translate(0.000000,512.000000) scale(0.100000,-0.100000)"
fill="#000000" stroke="none">
<path d="M1467 5109 c-640 -74 -1181 -512 -1381 -1119 -69 -209 -92 -384 -83
-640 11 -291 42 -524 147 -1100 111 -608 134 -783 149 -1130 12 -267 32 -366
110 -525 261 -532 885 -744 1412 -480 404 203 639 667 565 1117 -28 172 -18
313 32 458 72 205 196 397 393 606 262 279 402 549 466 899 21 113 24 416 5
525 -90 516 -380 932 -825 1188 -286 163 -661 240 -990 201z m443 -314 c168
-34 349 -110 500 -210 114 -75 285 -251 364 -372 156 -239 221 -456 220 -743
0 -189 -15 -282 -70 -442 -69 -199 -149 -325 -333 -526 -266 -290 -422 -553
-492 -834 -29 -118 -36 -313 -15 -444 20 -128 20 -214 0 -312 -58 -281 -255
-497 -534 -583 -108 -34 -292 -34 -400 0 -258 80 -449 271 -520 523 -17 56
-24 120 -31 283 -15 348 -44 573 -144 1115 -121 658 -148 867 -149 1170 -1
236 8 304 65 476 66 200 165 360 324 520 225 227 493 358 815 398 67 8 326 -4
400 -19z"/>
<path d="M1520 4514 c-134 -18 -301 -78 -419 -151 -240 -150 -398 -367 -473
-650 -20 -79 -23 -109 -22 -288 0 -291 25 -475 153 -1165 63 -339 74 -382 106
-446 135 -265 457 -369 719 -232 84 45 185 147 224 228 90 185 118 517 62 725
-43 162 -138 329 -257 456 -170 180 -406 296 -655 324 l-58 6 0 110 c0 60 7
143 15 183 76 369 406 625 775 603 119 -7 193 -26 295 -76 190 -94 336 -272
390 -476 62 -240 3 -498 -159 -684 l-39 -45 109 -102 c126 -119 108 -120 206
11 76 101 142 239 175 363 23 84 26 118 26 252 1 174 -11 244 -67 390 -54 146
-117 241 -241 365 -151 151 -281 225 -486 275 -83 21 -300 34 -379 24z m-476
-1520 c323 -83 556 -383 556 -716 0 -114 -34 -290 -67 -346 -65 -112 -227
-144 -331 -66 -70 54 -79 79 -138 396 -70 373 -124 691 -124 723 0 30 16 32
104 9z"/>
<path d="M4288 4204 c-324 -162 -588 -298 -588 -304 0 -16 124 -260 132 -260
18 0 1188 591 1188 600 0 20 -125 260 -135 259 -5 0 -274 -133 -597 -295z"/>
<path d="M3610 2570 l0 -150 755 0 755 0 0 150 0 150 -755 0 -755 0 0 -150z"/>
<path d="M3762 1375 c-34 -69 -62 -130 -62 -135 0 -9 1170 -600 1188 -600 8 0
132 244 132 260 0 9 -1170 600 -1188 600 -4 0 -35 -56 -70 -125z"/>
</g>
</svg>
