<?xml version="1.0" standalone="no"?>
<!DOCTYPE svg PUBLIC "-//W3C//DTD SVG 20010904//EN"
 "http://www.w3.org/TR/2001/REC-SVG-20010904/DTD/svg10.dtd">
<svg version="1.0" xmlns="http://www.w3.org/2000/svg"
 width="512.000000pt" height="512.000000pt" viewBox="0 0 512.000000 512.000000"
 preserveAspectRatio="xMidYMid meet">

<g transform="translate(0.000000,512.000000) scale(0.100000,-0.100000)"
fill="#000000" stroke="none">
<path d="M2108 5104 c-15 -8 -32 -23 -38 -34 -6 -12 -10 -175 -10 -452 0 -395
2 -435 18 -454 34 -43 43 -44 486 -44 l426 0 32 29 33 29 3 136 c2 86 7 136
14 136 6 0 58 -16 117 -36 207 -69 435 -196 614 -342 76 -63 257 -246 295
-300 l23 -32 -45 0 c-63 0 -108 -39 -108 -93 0 -48 23 -83 64 -96 18 -5 95
-22 171 -37 215 -41 218 -39 262 187 34 176 34 209 -6 242 -54 44 -134 23
-155 -41 -6 -18 -13 -34 -17 -35 -3 -1 -32 30 -63 68 -275 336 -702 609 -1121
715 l-42 10 -3 201 -3 201 -33 29 -32 29 -428 0 c-357 -1 -431 -3 -454 -16z
m752 -484 l0 -300 -300 0 -300 0 0 300 0 300 300 0 300 0 0 -300z"/>
<path d="M1214 4490 c-31 -12 -64 -59 -64 -89 0 -41 36 -91 70 -98 17 -3 32
-9 35 -13 2 -4 -15 -21 -39 -38 -104 -75 -347 -327 -385 -401 -17 -31 -6 -83
22 -109 49 -46 115 -37 158 21 55 75 185 211 271 283 l93 78 3 -50 c6 -95 91
-137 160 -79 28 23 32 37 62 194 30 159 31 170 16 199 -9 17 -24 36 -34 41
-16 8 -325 72 -341 70 -3 0 -16 -4 -27 -9z"/>
<path d="M2312 3547 c-38 -22 -50 -50 -62 -152 -6 -55 -15 -101 -19 -103 -4
-1 -37 -20 -75 -42 -38 -22 -73 -40 -78 -40 -6 0 -46 16 -91 35 -94 41 -136
44 -171 13 -40 -38 -236 -388 -236 -424 0 -41 23 -68 109 -129 l71 -50 0 -95
0 -95 -71 -50 c-86 -61 -109 -88 -109 -129 0 -36 196 -386 236 -423 35 -32 77
-29 171 12 45 19 85 35 91 35 5 0 40 -18 78 -40 38 -22 71 -41 75 -42 4 -2 13
-48 19 -102 6 -55 18 -109 26 -121 27 -41 54 -45 289 -45 l225 0 31 28 c29 26
32 35 44 132 6 57 17 106 22 107 6 2 41 23 79 46 l69 43 85 -37 c94 -42 144
-47 177 -21 22 18 243 396 243 417 0 44 -27 79 -103 134 l-82 59 1 93 2 93 78
57 c74 53 102 89 104 130 0 23 -217 401 -243 421 -33 26 -83 21 -177 -21 l-85
-37 -69 43 c-38 23 -73 44 -79 46 -5 1 -16 50 -22 107 -12 97 -15 106 -44 132
l-31 28 -228 0 c-163 -1 -233 -4 -250 -13z m363 -254 c11 -121 18 -132 121
-183 49 -25 112 -62 138 -82 61 -47 91 -48 182 -8 37 17 72 29 78 27 10 -4
106 -167 106 -180 0 -3 -28 -27 -62 -53 -35 -27 -67 -55 -73 -64 -14 -21 -15
-363 -1 -381 6 -8 39 -36 74 -62 34 -27 62 -51 62 -54 0 -13 -96 -176 -106
-180 -6 -2 -41 10 -78 27 -91 40 -121 39 -182 -7 -26 -21 -89 -58 -138 -83
-103 -51 -110 -62 -121 -182 l-7 -68 -109 0 c-124 0 -112 -10 -124 104 -10 89
-19 102 -104 142 -42 20 -104 56 -138 80 -74 53 -99 55 -190 14 -36 -17 -71
-30 -78 -30 -6 0 -19 15 -28 33 -9 17 -32 59 -51 93 l-35 61 63 46 c35 26 69
54 77 63 19 23 21 349 3 380 -7 12 -42 43 -78 69 l-65 48 35 61 c19 34 42 76
51 94 9 17 22 32 28 32 7 0 42 -13 78 -30 91 -41 116 -39 190 14 34 24 96 60
138 80 85 40 94 53 104 142 12 114 0 104 124 104 l109 0 7 -67z"/>
<path d="M2463 2895 c-195 -60 -294 -248 -234 -443 63 -207 307 -301 505 -194
129 70 199 235 162 383 -49 194 -250 312 -433 254z m163 -206 c78 -37 106
-141 56 -208 -35 -48 -70 -66 -125 -66 -92 0 -155 70 -144 163 6 53 30 88 77
113 45 24 84 24 136 -2z"/>
<path d="M663 3523 c-35 -7 -73 -59 -73 -100 0 -80 109 -125 165 -69 73 73 10
188 -92 169z"/>
<path d="M430 3094 c-212 -45 -370 -205 -415 -419 -18 -88 -18 -142 0 -230 45
-216 204 -375 420 -420 95 -20 157 -19 249 5 107 27 169 63 251 145 135 135
189 314 151 496 -22 102 -72 194 -146 270 -79 80 -153 123 -256 149 -89 23
-162 24 -254 4z m201 -198 c147 -34 244 -145 265 -303 13 -101 -44 -238 -126
-303 -70 -55 -126 -74 -220 -75 -77 0 -92 3 -152 33 -161 79 -232 246 -179
420 42 138 174 237 321 241 19 0 60 -5 91 -13z"/>
<path d="M4465 3100 c-165 -33 -310 -141 -380 -284 -84 -171 -84 -355 1 -516
63 -121 187 -224 312 -261 41 -12 43 -14 36 -43 -12 -58 -95 -261 -145 -355
-123 -230 -309 -456 -498 -604 l-58 -46 5 49 c4 44 2 52 -26 80 -23 22 -40 30
-67 30 -80 0 -93 -23 -131 -228 -41 -223 -39 -226 201 -273 151 -29 161 -30
193 -15 38 19 63 67 55 109 -6 31 -55 77 -84 77 -29 0 -23 13 24 50 333 264
596 650 721 1060 l26 85 66 18 c270 70 449 360 391 633 -24 111 -71 198 -152
279 -38 39 -93 82 -122 98 -103 55 -257 79 -368 57z m186 -204 c147 -34 244
-145 265 -303 13 -101 -44 -238 -126 -303 -70 -55 -126 -74 -220 -75 -77 0
-92 3 -152 33 -161 79 -232 246 -179 420 42 138 174 237 321 241 19 0 60 -5
91 -13z"/>
<path d="M717 1610 c-31 -25 -39 -49 -72 -219 -28 -147 -27 -177 11 -212 39
-37 98 -33 135 9 16 18 29 41 29 52 0 31 14 24 47 -22 52 -72 201 -225 301
-309 250 -208 546 -361 850 -439 l42 -11 0 -197 c0 -212 3 -223 57 -251 15 -8
153 -11 447 -11 l426 0 32 29 33 29 0 442 0 442 -33 29 -32 29 -426 0 c-453 0
-468 -1 -494 -49 -5 -11 -10 -78 -10 -150 0 -90 -3 -131 -11 -131 -28 0 -234
76 -329 121 -256 122 -499 310 -670 519 l-53 65 52 5 c42 5 59 12 77 33 33 39
32 88 -3 127 -26 28 -41 33 -182 60 -183 36 -191 36 -224 10z m2143 -1110 l0
-300 -300 0 -300 0 0 300 0 300 300 0 300 0 0 -300z"/>
</g>
</svg>
