<?xml version="1.0" standalone="no"?>
<!DOCTYPE svg PUBLIC "-//W3C//DTD SVG 20010904//EN"
 "http://www.w3.org/TR/2001/REC-SVG-20010904/DTD/svg10.dtd">
<svg version="1.0" xmlns="http://www.w3.org/2000/svg"
 width="512.000000pt" height="512.000000pt" viewBox="0 0 512.000000 512.000000"
 preserveAspectRatio="xMidYMid meet">

<g transform="translate(0.000000,512.000000) scale(0.100000,-0.100000)"
fill="#000000" stroke="none">
<path d="M2713 4948 c-28 -14 -33 -28 -93 -253 -28 -104 -53 -196 -56 -204 -3
-11 -8 -10 -27 3 -172 127 -404 74 -493 -112 -22 -46 -28 -72 -28 -132 -1 -66
3 -84 32 -143 58 -118 167 -182 297 -175 53 2 65 0 64 -12 0 -8 -19 -84 -42
-169 l-42 -154 -63 -33 c-81 -41 -102 -62 -144 -137 -30 -57 -33 -69 -33 -147
1 -60 6 -94 18 -117 9 -18 17 -34 17 -38 0 -3 -63 -5 -140 -5 l-140 0 0 215
c0 216 0 216 -25 240 -20 21 -34 25 -83 25 -53 0 -64 -4 -107 -37 -43 -34 -54
-38 -106 -38 -96 0 -154 58 -154 155 0 97 58 155 154 155 52 0 63 -4 106 -37
43 -34 54 -38 107 -38 49 0 63 4 83 25 l25 24 0 311 0 311 -26 26 c-25 25 -28
26 -127 20 -254 -14 -510 -98 -717 -235 -118 -79 -170 -128 -170 -164 0 -42
15 -64 50 -77 37 -12 53 -7 105 34 192 154 404 241 683 279 l42 6 0 -181 c0
-141 -3 -180 -12 -175 -7 2 -37 12 -67 22 -141 43 -303 -31 -371 -171 -33 -69
-34 -199 -2 -265 34 -70 75 -114 140 -148 95 -51 188 -52 300 -6 9 4 12 -26
12 -135 l0 -141 -215 0 c-216 0 -216 0 -240 -25 -21 -20 -25 -34 -25 -83 0
-53 4 -64 38 -107 33 -43 37 -54 37 -106 0 -96 -58 -154 -155 -154 -97 0 -155
58 -155 154 0 52 4 63 38 106 33 43 37 54 37 107 0 49 -4 63 -25 83 l-24 25
-256 0 -255 0 6 43 c33 242 87 393 205 578 55 85 58 104 28 143 -16 20 -29 26
-59 26 -32 0 -44 -6 -73 -40 -44 -51 -127 -203 -167 -304 -146 -371 -128 -797
49 -1157 86 -174 210 -337 340 -446 l69 -58 1 -72 c1 -61 -2 -73 -15 -73 -76
0 -182 -80 -208 -157 -24 -69 -20 -122 12 -187 l29 -56 -29 -56 c-31 -62 -35
-112 -16 -178 16 -55 99 -138 154 -154 31 -9 223 -12 753 -12 l712 0 24 25
c33 32 33 78 0 110 l-24 25 -711 0 -711 0 -24 25 c-16 15 -25 36 -25 55 0 19
9 40 25 55 l24 25 711 0 711 0 24 25 c33 32 33 78 0 110 l-24 25 -711 0 -711
0 -24 25 c-33 32 -33 78 0 110 l24 25 865 0 864 0 7 -28 c3 -16 28 -51 55 -77
28 -27 50 -55 50 -62 0 -10 -22 -13 -80 -13 -73 0 -83 -3 -105 -25 -25 -24
-25 -25 -25 -219 0 -213 -12 -301 -54 -406 -56 -137 -172 -272 -299 -348 -128
-77 -298 -113 -446 -95 -255 32 -456 176 -574 409 -14 28 -33 54 -42 58 -34
13 -72 6 -95 -19 -33 -35 -23 -88 37 -188 117 -196 314 -341 549 -403 96 -25
311 -25 409 0 190 50 351 150 472 296 57 69 129 201 158 287 16 52 17 53 56
53 24 0 39 -5 39 -12 0 -7 -22 -35 -50 -63 -31 -31 -52 -63 -56 -83 -7 -33 -2
-38 179 -219 181 -181 186 -186 219 -179 20 4 52 25 83 56 28 28 56 50 63 50
8 0 12 -24 12 -80 0 -73 3 -83 25 -105 22 -23 31 -25 125 -25 94 0 103 2 125
25 56 55 15 135 -70 135 l-45 0 0 64 c0 79 -12 95 -100 131 -108 45 -121 44
-180 -11 l-51 -48 -96 96 -96 96 47 53 c55 61 56 72 11 179 -36 88 -52 100
-131 100 l-64 0 0 140 0 140 64 0 c79 0 95 12 131 100 45 108 44 121 -11 180
l-48 51 96 96 96 96 53 -47 c61 -55 72 -56 179 -11 88 36 100 52 100 131 l0
64 140 0 140 0 0 -64 c0 -79 12 -95 100 -131 108 -45 121 -44 180 11 l51 48
96 -96 96 -96 -47 -53 c-55 -61 -56 -72 -11 -179 36 -88 52 -100 131 -100 l64
0 0 -140 0 -140 -64 0 c-79 0 -95 -12 -131 -100 -45 -108 -44 -121 11 -180
l48 -51 -96 -96 -96 -96 -53 47 c-61 55 -72 56 -179 11 -97 -40 -100 -45 -100
-187 0 -113 1 -120 25 -143 32 -33 78 -33 110 0 22 22 25 32 25 105 0 56 4 80
12 80 7 0 35 -22 63 -50 31 -31 63 -52 83 -56 33 -7 38 -2 219 179 181 181
186 186 179 219 -4 20 -25 52 -56 83 -28 28 -50 56 -50 63 0 8 24 12 80 12 73
0 83 3 105 25 l25 24 0 251 0 251 -25 24 c-22 22 -32 25 -105 25 -56 0 -80 4
-80 12 0 7 22 35 50 63 30 30 52 63 56 82 6 30 1 38 -66 108 l-73 75 56 0 c45
0 61 5 84 24 26 22 28 31 31 109 l4 84 37 21 37 21 56 -33 c121 -73 129 -69
246 133 51 86 92 168 92 182 -1 34 -16 51 -90 96 -64 39 -65 40 -65 83 0 43 1
44 65 83 74 45 89 62 90 96 0 14 -41 96 -92 182 -117 202 -125 206 -246 133
l-56 -33 -37 21 -37 21 -4 84 c-3 78 -5 87 -31 109 -28 23 -32 24 -211 24
-169 0 -185 -2 -209 -20 -24 -19 -26 -28 -29 -108 l-3 -87 -40 -22 -40 -21
-59 34 c-80 47 -106 52 -139 22 -31 -26 -186 -290 -193 -328 -8 -35 24 -72 96
-112 60 -32 60 -33 60 -78 0 -45 0 -46 -60 -78 -75 -42 -104 -76 -96 -117 7
-37 39 -65 74 -65 32 0 218 104 232 130 13 24 13 236 0 260 -5 10 -35 33 -65
50 -53 30 -55 33 -42 54 7 11 26 42 41 68 l27 46 65 -34 c68 -35 94 -35 136 3
10 9 46 30 80 47 73 36 88 59 88 139 l0 57 80 0 80 0 0 -70 c0 -62 3 -74 25
-95 13 -14 31 -25 38 -25 8 0 43 -19 77 -41 74 -50 98 -51 168 -10 l51 30 37
-62 c21 -34 39 -65 41 -69 2 -4 -21 -22 -52 -39 -30 -17 -59 -39 -64 -48 -12
-21 -12 -241 0 -262 5 -9 34 -31 64 -48 31 -17 54 -35 52 -39 -2 -4 -20 -35
-41 -69 l-37 -62 -51 30 c-70 41 -94 40 -168 -10 -34 -22 -69 -41 -77 -41 -7
0 -25 -11 -38 -25 -22 -21 -25 -33 -25 -95 l0 -70 -79 0 -79 0 -4 71 c-3 64
-7 74 -33 96 -22 19 -35 24 -59 19 -46 -9 -66 -39 -66 -99 0 -47 -4 -55 -42
-94 -61 -62 -68 -58 -68 37 0 73 -3 83 -25 105 l-24 25 -251 0 -251 0 -24 -25
c-22 -22 -25 -32 -25 -105 0 -56 -4 -80 -12 -80 -7 0 -35 22 -63 50 -31 30
-63 52 -83 56 -31 6 -38 1 -150 -109 -115 -114 -118 -116 -155 -110 l-37 6 1
71 1 71 69 58 c276 231 462 615 486 1003 6 100 5 102 -20 128 l-26 26 -237 0
c-221 0 -236 1 -229 18 35 83 43 158 25 221 -5 19 -8 36 -6 39 2 2 38 -6 79
-18 114 -31 143 -17 168 83 11 44 10 53 -11 97 -85 181 153 320 273 159 49
-67 24 -176 -53 -224 -33 -21 -42 -34 -56 -81 -15 -52 -15 -60 -1 -90 9 -18
24 -35 34 -38 99 -30 554 -148 573 -148 67 -2 89 43 115 238 35 266 -3 534
-111 772 -39 87 -54 102 -101 102 -70 0 -94 -70 -52 -153 60 -117 105 -302
116 -472 8 -130 -12 -305 -35 -305 -14 0 -323 80 -330 85 -2 2 10 22 28 46
111 154 55 381 -116 465 -160 78 -353 14 -431 -144 -24 -48 -28 -69 -28 -139
0 -69 -3 -82 -15 -78 -8 2 -67 18 -130 35 -63 17 -116 33 -118 35 -2 1 19 88
47 192 28 103 51 202 51 219 0 40 -25 62 -91 79 -48 13 -56 12 -95 -5 -106
-49 -206 -5 -234 101 -30 110 79 219 189 189 47 -12 86 -42 106 -80 15 -29 84
-60 135 -60 31 0 67 31 76 65 3 14 32 121 64 238 50 186 60 212 76 209 11 -2
73 -30 139 -62 137 -67 262 -157 357 -258 36 -39 76 -75 88 -82 45 -24 110 18
110 71 0 53 -166 219 -325 326 -87 58 -226 126 -333 162 -100 33 -115 35 -149
19z m-225 -1535 c50 -38 67 -70 67 -132 0 -52 -4 -63 -37 -106 -34 -43 -38
-54 -38 -107 0 -49 4 -63 25 -83 l24 -25 256 0 255 0 -6 -42 c-24 -179 -61
-306 -134 -453 -79 -160 -184 -287 -373 -451 l-47 -40 0 -107 0 -107 -320 0
-320 0 0 181 c0 141 3 180 13 175 104 -44 202 -44 286 -2 72 37 104 68 142
138 31 58 34 70 34 148 0 78 -3 90 -34 148 -85 158 -251 210 -428 136 -9 -4
-13 5 -13 31 0 46 -36 85 -80 85 -19 0 -40 -9 -55 -25 -24 -23 -25 -31 -25
-135 0 -104 1 -112 25 -135 20 -21 34 -25 83 -25 53 0 64 4 107 37 43 34 54
38 106 38 96 0 154 -58 154 -155 0 -97 -58 -155 -154 -155 -52 0 -63 4 -106
38 -43 33 -54 37 -107 37 -49 0 -63 -4 -83 -25 l-25 -24 0 -256 0 -255 -320 0
-320 0 0 107 0 107 -47 40 c-189 164 -294 291 -373 451 -73 147 -110 274 -134
453 l-6 42 181 0 c141 0 180 -3 175 -12 -26 -64 -38 -127 -32 -180 11 -110 68
-195 168 -249 58 -31 70 -34 148 -34 78 0 90 3 148 34 70 38 101 70 138 142
42 84 42 182 -2 287 -5 9 85 12 431 12 l436 0 24 25 c21 20 25 34 25 83 0 53
-4 64 -35 103 -38 49 -51 91 -41 144 8 42 49 93 91 111 40 19 120 12 153 -13z"/>
<path d="M4007 2706 c-59 -22 -103 -61 -131 -118 -109 -218 132 -438 337 -308
194 123 118 419 -111 436 -34 3 -72 -1 -95 -10z m129 -169 c20 -17 27 -33 27
-57 0 -24 -7 -40 -27 -57 -34 -28 -65 -29 -100 -2 -37 29 -37 89 0 118 35 27
66 26 100 -2z"/>
<path d="M3323 1586 c-234 -57 -396 -293 -363 -529 17 -114 50 -185 128 -269
262 -282 743 -147 821 230 15 72 14 131 -4 211 -23 101 -75 143 -131 107 -43
-29 -49 -56 -29 -130 42 -154 -30 -307 -174 -375 -45 -21 -71 -26 -131 -26
-127 0 -227 62 -287 178 -24 45 -28 64 -28 137 0 70 5 94 25 135 70 143 222
212 376 170 74 -20 101 -14 130 29 36 56 -6 108 -107 131 -80 18 -154 18 -226
1z"/>
</g>
</svg>
